<?xml version="1.0" encoding="utf-8"?>
<!-- Generator: Adobe Illustrator 24.1.2, SVG Export Plug-In . SVG Version: 6.00 Build 0)  -->
<svg version="1.1" id="Layer_1" xmlns="http://www.w3.org/2000/svg" xmlns:xlink="http://www.w3.org/1999/xlink" x="0px" y="0px"
	 viewBox="0 0 200 200" style="enable-background:new 0 0 200 200;" xml:space="preserve">
<style type="text/css">
	.st0{fill-rule:evenodd;clip-rule:evenodd;fill:#FFFFFF;}
	.st1{display:none;fill:none;stroke:#1DB954;stroke-width:10;stroke-miterlimit:10;}
	.st2{fill-rule:evenodd;clip-rule:evenodd;fill:#1DB954;}
	.st3{fill:none;stroke:#1DB954;stroke-width:10;stroke-miterlimit:10;}
	.st4{fill:#FFFFFF;}
</style>
<path class="st0" d="M-734.5,146.7c-1.5,3-6,4.5-9,1.5l0,0c-28.5-15-61.5-19.5-93-10.5c-3,0-7.5-1.5-7.5-4.5s1.5-6,4.5-7.5l0,0
	c34.5-10.5,70.5-6,102,12C-733,139.2-733,143.7-734.5,146.7L-734.5,146.7z M-721,118.2c-3,4.5-7.5,4.5-10.5,3l0,0
	c-31.5-18-70.5-22.5-105-12c-4.5,1.5-9-1.5-10.5-6l0,0c-1.5-4.5,1.5-9,6-10.5c39-12,82.5-6,118.5,13.5
	C-721,109.2-719.5,113.7-721,118.2z M-721,88.2c-37.5-18-81-22.5-121.5-12c-6,1.5-10.5-1.5-12-7.5c-1.5-4.5,1.5-9,6-12
	c46.5-12,94.5-7.5,138,13.5c4.5,3,7.5,7.5,4.5,13.5c-3,4.5-7.5,7.5-13.5,4.5C-719.5,89.7-719.5,88.2-721,88.2L-721,88.2z"/>
<path class="st0" d="M-520.4,135.5c-1.1,2.2-4.5,3.4-6.8,1.1l0,0c-21.4-11.2-46.1-14.6-69.8-7.9c-2.2,0-5.6-1.1-5.6-3.4
	s1.1-4.5,3.4-5.6l0,0c25.9-7.9,52.9-4.5,76.5,9C-519.2,129.9-519.2,133.3-520.4,135.5L-520.4,135.5z M-510.2,114.2
	c-2.2,3.4-5.6,3.4-7.9,2.2l0,0c-23.6-13.5-52.9-16.9-78.8-9c-3.4,1.1-6.8-1.1-7.9-4.5l0,0c-1.1-3.4,1.1-6.8,4.5-7.9
	c29.2-9,61.9-4.5,88.9,10.1C-510.2,107.4-509.1,110.8-510.2,114.2z M-510.2,91.7c-28.1-13.5-60.8-16.9-91.1-9
	c-4.5,1.1-7.9-1.1-9-5.6c-1.1-3.4,1.1-6.8,4.5-9C-571,59-535,62.4-502.4,78.2c3.4,2.2,5.6,5.6,3.4,10.1c-2.2,3.4-5.6,5.6-10.1,3.4
	C-509.1,92.8-509.1,91.7-510.2,91.7L-510.2,91.7z"/>
<circle class="st1" cx="-560" cy="100" r="90"/>
<path class="st2" d="M-300.4,135.5c-1.1,2.2-4.5,3.4-6.8,1.1l0,0c-21.4-11.2-46.1-14.6-69.8-7.9c-2.2,0-5.6-1.1-5.6-3.4
	s1.1-4.5,3.4-5.6l0,0c25.9-7.9,52.9-4.5,76.5,9C-299.2,129.9-299.2,133.3-300.4,135.5L-300.4,135.5z M-290.2,114.2
	c-2.2,3.4-5.6,3.4-7.9,2.2l0,0c-23.6-13.5-52.9-16.9-78.8-9c-3.4,1.1-6.8-1.1-7.9-4.5l0,0c-1.1-3.4,1.1-6.8,4.5-7.9
	c29.2-9,61.9-4.5,88.9,10.1C-290.2,107.4-289.1,110.8-290.2,114.2z M-290.2,91.7c-28.1-13.5-60.8-16.9-91.1-9
	c-4.5,1.1-7.9-1.1-9-5.6c-1.1-3.4,1.1-6.8,4.5-9c34.9-9,70.9-5.6,103.5,10.1c3.4,2.2,5.6,5.6,3.4,10.1c-2.2,3.4-5.6,5.6-10.1,3.4
	C-289.1,92.8-289.1,91.7-290.2,91.7L-290.2,91.7z"/>
<circle class="st3" cx="-340" cy="100" r="90"/>
<path class="st2" d="M-80.4,135.5c-1.1,2.2-4.5,3.4-6.8,1.1l0,0c-21.4-11.2-46.1-14.6-69.8-7.9c-2.2,0-5.6-1.1-5.6-3.4
	s1.1-4.5,3.4-5.6l0,0c25.9-7.9,52.9-4.5,76.5,9C-79.2,129.9-79.2,133.3-80.4,135.5L-80.4,135.5z M-70.2,114.2
	c-2.2,3.4-5.6,3.4-7.9,2.2l0,0c-23.6-13.5-52.9-16.9-78.8-9c-3.4,1.1-6.8-1.1-7.9-4.5l0,0c-1.1-3.4,1.1-6.8,4.5-7.9
	c29.2-9,61.9-4.5,88.9,10.1C-70.2,107.4-69.1,110.8-70.2,114.2z M-70.2,91.7c-28.1-13.5-60.8-16.9-91.1-9c-4.5,1.1-7.9-1.1-9-5.6
	c-1.1-3.4,1.1-6.8,4.5-9c34.9-9,70.9-5.6,103.5,10.1c3.4,2.2,5.6,5.6,3.4,10.1c-2.2,3.4-5.6,5.6-10.1,3.4
	C-69.1,92.8-69.1,91.7-70.2,91.7L-70.2,91.7z"/>
<circle class="st3" cx="-120" cy="100" r="90"/>
<path class="st4" d="M100,200c55.2,0,100-44.8,100-100S155.2,0,100,0S0,44.8,0,100S44.8,200,100,200z M140.6,147.1L140.6,147.1
	c-6.7,0-28-23.6-87.7-11.3c-1.6,0.4-3.6,1.1-4.8,1.1c-7.6,0-9.1-11.4-0.9-13.2c33-7.3,66.8-6.7,95.6,10.6
	C149.7,138.7,146.8,147.1,140.6,147.1L140.6,147.1z M151.5,120.7c-0.9-0.2-0.7,0.6-5-1.7c-25.2-14.9-62.8-20.9-96.2-11.9
	c-1.9,0.5-3,1.1-4.8,1.1c-8.9,0-11.3-13.4-1.6-16.2c39.3-11,81.5-4.6,110.8,12.9c3.3,1.9,4.6,4.4,4.6,7.9
	C159.2,117.2,155.8,120.7,151.5,120.7z M37.9,58.3c37.7-11,94.7-7.6,130.2,13.1c9.1,5.2,5.5,18.5-4.1,18.5l0,0
	c-2.1,0-3.4-0.5-5.2-1.6c-28.7-17.1-80-21.2-113.2-12c-1.5,0.4-3.3,1-5.2,1c-5.3,0-9.4-4.2-9.4-9.5C30.9,62.5,34.3,59.4,37.9,58.3
	L37.9,58.3z"/>
</svg>
