<?xml version="1.0" encoding="utf-8"?>
<!-- Generator: Adobe Illustrator 24.1.2, SVG Export Plug-In . SVG Version: 6.00 Build 0)  -->
<svg version="1.1" id="Layer_1" xmlns="http://www.w3.org/2000/svg" xmlns:xlink="http://www.w3.org/1999/xlink" x="0px" y="0px"
	 viewBox="0 0 200 200" style="enable-background:new 0 0 200 200;" xml:space="preserve">
<style type="text/css">
	.st0{fill-rule:evenodd;clip-rule:evenodd;fill:#FFFFFF;}
	.st1{display:none;fill:none;stroke:#1DB954;stroke-width:10;stroke-miterlimit:10;}
	.st2{fill-rule:evenodd;clip-rule:evenodd;fill:#1DB954;}
	.st3{fill:none;stroke:#1DB954;stroke-width:10;stroke-miterlimit:10;}
</style>
<path class="st0" d="M-514.5,146.7c-1.5,3-6,4.5-9,1.5l0,0c-28.5-15-61.5-19.5-93-10.5c-3,0-7.5-1.5-7.5-4.5s1.5-6,4.5-7.5l0,0
	c34.5-10.5,70.5-6,102,12C-513,139.2-513,143.7-514.5,146.7L-514.5,146.7z M-501,118.2c-3,4.5-7.5,4.5-10.5,3l0,0
	c-31.5-18-70.5-22.5-105-12c-4.5,1.5-9-1.5-10.5-6l0,0c-1.5-4.5,1.5-9,6-10.5c39-12,82.5-6,118.5,13.5
	C-501,109.2-499.5,113.7-501,118.2z M-501,88.2c-37.5-18-81-22.5-121.5-12c-6,1.5-10.5-1.5-12-7.5c-1.5-4.5,1.5-9,6-12
	c46.5-12,94.5-7.5,138,13.5c4.5,3,7.5,7.5,4.5,13.5c-3,4.5-7.5,7.5-13.5,4.5C-499.5,89.7-499.5,88.2-501,88.2L-501,88.2z"/>
<path class="st0" d="M-300.4,135.5c-1.1,2.2-4.5,3.4-6.8,1.1l0,0c-21.4-11.2-46.1-14.6-69.8-7.9c-2.2,0-5.6-1.1-5.6-3.4
	s1.1-4.5,3.4-5.6l0,0c25.9-7.9,52.9-4.5,76.5,9C-299.2,129.9-299.2,133.3-300.4,135.5L-300.4,135.5z M-290.2,114.2
	c-2.2,3.4-5.6,3.4-7.9,2.2l0,0c-23.6-13.5-52.9-16.9-78.8-9c-3.4,1.1-6.8-1.1-7.9-4.5l0,0c-1.1-3.4,1.1-6.8,4.5-7.9
	c29.2-9,61.9-4.5,88.9,10.1C-290.2,107.4-289.1,110.8-290.2,114.2z M-290.2,91.7c-28.1-13.5-60.8-16.9-91.1-9
	c-4.5,1.1-7.9-1.1-9-5.6c-1.1-3.4,1.1-6.8,4.5-9C-351,59-315,62.4-282.4,78.2c3.4,2.2,5.6,5.6,3.4,10.1c-2.2,3.4-5.6,5.6-10.1,3.4
	C-289.1,92.8-289.1,91.7-290.2,91.7L-290.2,91.7z"/>
<circle class="st1" cx="-340" cy="100" r="90"/>
<path class="st2" d="M-80.4,135.5c-1.1,2.2-4.5,3.4-6.8,1.1l0,0c-21.4-11.2-46.1-14.6-69.8-7.9c-2.2,0-5.6-1.1-5.6-3.4
	s1.1-4.5,3.4-5.6l0,0c25.9-7.9,52.9-4.5,76.5,9C-79.2,129.9-79.2,133.3-80.4,135.5L-80.4,135.5z M-70.2,114.2
	c-2.2,3.4-5.6,3.4-7.9,2.2l0,0c-23.6-13.5-52.9-16.9-78.8-9c-3.4,1.1-6.8-1.1-7.9-4.5l0,0c-1.1-3.4,1.1-6.8,4.5-7.9
	c29.2-9,61.9-4.5,88.9,10.1C-70.2,107.4-69.1,110.8-70.2,114.2z M-70.2,91.7c-28.1-13.5-60.8-16.9-91.1-9c-4.5,1.1-7.9-1.1-9-5.6
	c-1.1-3.4,1.1-6.8,4.5-9c34.9-9,70.9-5.6,103.5,10.1c3.4,2.2,5.6,5.6,3.4,10.1c-2.2,3.4-5.6,5.6-10.1,3.4
	C-69.1,92.8-69.1,91.7-70.2,91.7L-70.2,91.7z"/>
<circle class="st3" cx="-120" cy="100" r="90"/>
<path class="st2" d="M139.6,135.5c-1.1,2.2-4.5,3.4-6.8,1.1l0,0c-21.4-11.2-46.1-14.6-69.8-7.9c-2.2,0-5.6-1.1-5.6-3.4
	s1.1-4.5,3.4-5.6l0,0c25.9-7.9,52.9-4.5,76.5,9C140.8,129.9,140.8,133.3,139.6,135.5L139.6,135.5z M149.8,114.2
	c-2.2,3.4-5.6,3.4-7.9,2.2l0,0c-23.6-13.5-52.9-16.9-78.8-9c-3.4,1.1-6.8-1.1-7.9-4.5l0,0c-1.1-3.4,1.1-6.8,4.5-7.9
	c29.2-9,61.9-4.5,88.9,10.1C149.8,107.4,150.9,110.8,149.8,114.2z M149.8,91.7c-28.1-13.5-60.8-16.9-91.1-9c-4.5,1.1-7.9-1.1-9-5.6
	c-1.1-3.4,1.1-6.8,4.5-9c34.9-9,70.9-5.6,103.5,10.1c3.4,2.2,5.6,5.6,3.4,10.1c-2.2,3.4-5.6,5.6-10.1,3.4
	C150.9,92.8,150.9,91.7,149.8,91.7L149.8,91.7z"/>
<circle class="st3" cx="100" cy="100" r="90"/>
</svg>
