<svg xmlns="http://www.w3.org/2000/svg" width="10.01" height="6.65" viewBox="0 0 10.01 6.65"><path d="M15.2,15.1a.38.38,0,0,1-.6.1h0a8.35,8.35,0,0,0-6.2-.7c-.2,0-.5-.1-.5-.3a.55.55,0,0,1,.3-.5h0a8.54,8.54,0,0,1,6.8.8.4.4,0,0,1,.2.6Zm.9-1.9a.53.53,0,0,1-.7.2h0a9,9,0,0,0-7-.8.57.57,0,0,1-.7-.4h0a.57.57,0,0,1,.4-.7,10.39,10.39,0,0,1,7.9.9A1.06,1.06,0,0,1,16.1,13.2Zm0-2A11.92,11.92,0,0,0,8,10.4a.62.62,0,0,1-.8-.5.74.74,0,0,1,.4-.8,13.31,13.31,0,0,1,9.2.9.67.67,0,1,1-.6,1.2c0,.1,0,0-.1,0Z" transform="translate(-7.17 -8.66)" fill="#fff" fill-rule="evenodd"/></svg>