<svg xmlns="http://www.w3.org/2000/svg" xmlns:xlink="http://www.w3.org/1999/xlink" version="1.1" x="0px" y="0px" viewBox="0 0 100 125" enable-background="new 0 0 100 100" xml:space="preserve"><path fill="#000000" d="M75.015,25.861c-2.109-2.109-5.528-2.108-7.638-0.001L49.878,43.354l-17.5-17.493  c-2.11-2.107-5.528-2.108-7.637,0.001c-2.109,2.109-2.109,5.528,0,7.637L42.239,50.99L24.741,68.481  c-2.109,2.109-2.109,5.528,0,7.638c1.055,1.055,2.436,1.582,3.818,1.582c1.382,0,2.764-0.527,3.818-1.58l17.5-17.495l17.499,17.495  c1.055,1.053,2.437,1.58,3.818,1.58c1.383,0,2.765-0.527,3.819-1.582c2.108-2.109,2.108-5.528-0.001-7.638L57.516,50.99  l17.498-17.492C77.123,31.39,77.123,27.971,75.015,25.861z"/><text x="0" y="115" fill="#000000" font-size="5px" font-weight="bold" font-family="'Helvetica Neue', Helvetica, Arial-Unicode, Arial, Sans-serif">Created by Lluisa Iborra</text><text x="0" y="120" fill="#000000" font-size="5px" font-weight="bold" font-family="'Helvetica Neue', Helvetica, Arial-Unicode, Arial, Sans-serif">from the Noun Project</text></svg>