<?xml version="1.0" encoding="utf-8"?>
<!-- Generator: Adobe Illustrator 24.1.2, SVG Export Plug-In . SVG Version: 6.00 Build 0)  -->
<svg version="1.1" id="Layer_1" xmlns="http://www.w3.org/2000/svg" xmlns:xlink="http://www.w3.org/1999/xlink" x="0px" y="0px"
	 viewBox="0 0 200 200" style="enable-background:new 0 0 200 200;" xml:space="preserve">
<style type="text/css">
	.st0{fill-rule:evenodd;clip-rule:evenodd;fill:#FFFFFF;}
</style>
<path class="st0" d="M145.5,146.7c-1.5,3-6,4.5-9,1.5l0,0c-28.5-15-61.5-19.5-93-10.5c-3,0-7.5-1.5-7.5-4.5c0-3,1.5-6,4.5-7.5l0,0
	c34.5-10.5,70.5-6,102,12C147,139.2,147,143.7,145.5,146.7L145.5,146.7z M159,118.2c-3,4.5-7.5,4.5-10.5,3l0,0
	c-31.5-18-70.5-22.5-105-12c-4.5,1.5-9-1.5-10.5-6l0,0c-1.5-4.5,1.5-9,6-10.5c39-12,82.5-6,118.5,13.5
	C159,109.2,160.5,113.7,159,118.2z M159,88.2c-37.5-18-81-22.5-121.5-12c-6,1.5-10.5-1.5-12-7.5c-1.5-4.5,1.5-9,6-12
	c46.5-12,94.5-7.5,138,13.5c4.5,3,7.5,7.5,4.5,13.5c-3,4.5-7.5,7.5-13.5,4.5C160.5,89.7,160.5,88.2,159,88.2L159,88.2z"/>
</svg>
